#!OML:ASF F:\VICON\USERDATA\INSTALL\rory3\rory3.ASF
:FULLY-SPECIFIED
:DEGREES
187
root 4.69344 17.8319 13.9229 -5.53056 -2.89469 1.03582
lowerback 10.8101 0.252534 -2.14653
upperback 0.489954 0.115524 0.769539
thorax -5.56131 0.121113 1.99897
lowerneck -15.7047 -2.75238 -1.93965
upperneck 20.4461 -3.38172 0.190706
head 9.04508 -1.71789 -0.0302026
rclavicle 8.94376e-015 2.10712e-014
rhumerus -32.0263 -21.9509 -76.6071
rradius 24.533
rwrist 6.24062
rhand -17.2234 25.1511
rfingers 7.12502
rthumb 9.01981 -4.63608
lclavicle 8.94376e-015 2.10712e-014
lhumerus -33.5713 -0.798738 81.6283
lradius 26.7832
lwrist 4.7121
lhand -23.5707 31.4697
lfingers 7.12502
lthumb 2.89197 61.4299
rfemur -26.0912 1.06632 22.3531
rtibia 68.2574
rfoot -8.35543 -8.05682
rtoes 5.27594
lfemur -3.29456 -4.28805 -25.5942
ltibia 29.4284
lfoot -15.9983 1.30351
ltoes 3.50024
188
root 4.69092 17.823 14.0938 -5.45275 -2.65646 1.33301
lowerback 10.7432 0.138072 -2.47872
upperback 0.582791 -0.07877 0.706347
thorax -5.41608 0.0300728 2.14952
lowerneck -15.9089 -2.66875 -1.82175
upperneck 20.247 -3.2649 0.08591
head 9.0084 -1.66471 -0.072079
rclavicle 9.52613e-015 1.41137e-014
rhumerus -32.1672 -21.6328 -76.8414
rradius 24.9571
rwrist 5.99921
rhand -17.435 24.6426
rfingers 7.12502
rthumb 8.81561 -5.15332
lclavicle 9.52613e-015 1.41137e-014
lhumerus -33.2024 -1.33678 81.6397
lradius 27.3963
lwrist 5.69027
lhand -24.5797 29.3472
lfingers 7.12502
lthumb 1.9175 59.3183
rfemur -26.932 0.82542 21.9728
rtibia 66.7284
rfoot -9.69844 -8.47094
rtoes -1.51341
lfemur -2.67611 -4.46847 -26.0235
ltibia 29.3108
lfoot -16.4897 1.40004
ltoes 4.49615
189
root 4.68773 17.8116 14.2624 -5.36634 -2.42864 1.70401
lowerback 10.8362 0.0396922 -2.87288
upperback 0.636242 -0.263598 0.637181
thorax -5.40047 -0.0530046 2.32822
lowerneck -16.3234 -2.64861 -2.08253
upperneck 20.2689 -3.22143 0.355892
head 9.1012 -1.63293 0.0623858
rclavicle 5.48211e-015 1.70955e-014
rhumerus -32.2855 -21.1465 -77.1052
rradius 25.4226
rwrist 5.51611
rhand -17.7277 25.2782
rfingers 7.12502
rthumb 8.53316 -4.5294
lclavicle 5.48211e-015 1.70955e-014
lhumerus -32.8059 -1.92441 81.721
lradius 27.7718
lwrist 6.32185
lhand -26.7598 24.7458
lfingers 7.12502
lthumb -0.188142 54.7254
rfemur -27.7216 0.71531 21.4981
rtibia 65.0366
rfoot -10.5281 -8.9354
rtoes -7.9317
lfemur -1.88555 -4.47417 -26.5146
ltibia 29.0493
lfoot -17.2343 1.5557
ltoes 4.25735
190
root 4.68162 17.7956 14.4356 -5.26036 -2.33932 1.74167
lowerback 11.0578 -0.0309734 -2.89821
upperback 0.538476 -0.368678 0.632157
thorax -5.62104 -0.0991791 2.35613
lowerneck -16.543 -2.67332 -2.22515
upperneck 20.3285 -3.23721 0.459674
head 9.16687 -1.6389 0.115911
rclavicle 5.24605e-015 1.43125e-014
rhumerus -32.5916 -21.4039 -76.944
rradius 25.3955
rwrist 5.71042
rhand -17.8844 23.9377
rfingers 7.12502
rthumb 8.38188 -5.87599
lclavicle 5.24605e-015 1.43125e-014
lhumerus -32.5362 -2.27368 81.5665
lradius 28.1242
lwrist 6.204
lhand -26.1048 26.2113
lfingers 7.12502
lthumb 0.444541 56.1906
rfemur -28.3853 0.757017 21.429
rtibia 63.121
rfoot -10.1428 -9.5132
rtoes -6.01926
lfemur -1.07729 -4.45373 -26.631
ltibia 28.6475
lfoot -17.7437 1.7256
ltoes 3.83814
191
root 4.67595 17.7927 14.6111 -5.23111 -2.32551 1.70751
lowerback 11.1979 -0.0718112 -2.84636
upperback 0.512169 -0.419477 0.65568
thorax -5.7244 -0.123098 2.36119
lowerneck -16.5923 -2.63095 -2.16182
upperneck 20.1783 -3.16729 0.352144
head 9.11988 -1.613 0.0780382
rclavicle -5.30507e-015 7.55382e-015
rhumerus -33.0066 -21.3025 -76.889
rradius 25.6545
rwrist 5.46572
rhand -17.6787 22.6182
rfingers 7.12502
rthumb 8.58038 -7.18743
lclavicle -5.30507e-015 7.55382e-015
lhumerus -32.2408 -2.53497 81.4143
lradius 28.519
lwrist 6.16708
lhand -24.4879 28.3822
lfingers 7.12502
lthumb 2.00612 58.3525
rfemur -28.8031 0.735055 21.4455
rtibia 61.0569
rfoot -9.85303 -10.3269
rtoes -1.55232
lfemur -0.205766 -4.41573 -26.6746
ltibia 28.2275
lfoot -18.0973 1.88151
ltoes 3.49313
192
root 4.67008 17.7884 14.7833 -5.11884 -2.27284 1.8963
lowerback 11.1335 -0.0958128 -3.04647
upperback 0.496245 -0.477704 0.610397
thorax -5.70045 -0.14727 2.43529
lowerneck -16.3916 -2.52466 -2.22774
upperneck 19.8509 -3.04847 0.546224
head 8.97309 -1.54166 0.174969
rclavicle -4.32978e-015 -1.27222e-014
rhumerus -33.4535 -20.8662 -77.0648
rradius 26.2189
rwrist 4.7714
rhand -17.734 22.5348
rfingers 7.12502
rthumb 8.527 -7.27305
lclavicle -4.32978e-015 -1.27222e-014
lhumerus -32.1338 -3.86015 81.8899
lradius 30.324
lwrist 7.41694
lhand -24.6783 36.9684
lfingers 7.12502
lthumb 1.82223 66.9404
rfemur -29.3029 0.692519 21.1868
rtibia 58.8997
rfoot -9.8451 -10.9774
rtoes -0.186669
lfemur 0.50692 -4.50616 -26.967
ltibia 27.8322
lfoot -18.3907 2.01556
ltoes 3.8625
193
root 4.66418 17.7734 14.9547 -4.9535 -2.15337 2.03266
lowerback 11.0804 -0.185687 -3.23627
upperback 0.450339 -0.618996 0.627651
thorax -5.70801 -0.210748 2.58264
lowerneck -16.3602 -2.46362 -2.45059
upperneck 19.723 -2.96573 0.814398
head 8.93037 -1.49046 0.314436
rclavicle 8.24956e-015 5.96354e-015
rhumerus -33.6605 -20.8065 -76.9784
rradius 26.2615
rwrist 4.77633
rhand -18.2412 22.9313
rfingers 7.12502
rthumb 8.03753 -6.89591
lclavicle 8.24956e-015 5.96354e-015
lhumerus -31.8307 -3.99747 81.6872
lradius 30.4155
lwrist 7.23428
lhand -25.8348 32.2195
lfingers 7.12502
lthumb 0.705254 62.1981
rfemur -29.7994 0.736143 20.9601
rtibia 56.6394
rfoot -9.70131 -11.4945
rtoes -0.491237
lfemur 1.20797 -4.52594 -27.1609
ltibia 27.3178
lfoot -18.7345 1.98053
ltoes 4.49787
